<mxfile host="app.diagrams.net" agent="Mozilla/5.0 (Macintosh; Intel Mac OS X 10_15_7) AppleWebKit/605.1.15 (KHTML, like Gecko) Version/18.4 Safari/605.1.15" version="27.1.4">
  <diagram name="Page-1" id="7aTZEIfsh9o-iboKqWnn">
    <mxGraphModel dx="200" dy="1780" grid="1" gridSize="10" guides="1" tooltips="1" connect="1" arrows="1" fold="1" page="1" pageScale="1" pageWidth="850" pageHeight="1100" math="0" shadow="0">
      <root>
        <mxCell id="0" />
        <mxCell id="1" parent="0" />
        <mxCell id="EDLBkWlFKPZ8wZQIB9aU-48" style="edgeStyle=orthogonalEdgeStyle;rounded=0;orthogonalLoop=1;jettySize=auto;html=1;entryX=0;entryY=0.5;entryDx=0;entryDy=0;" parent="1" source="2" target="3" edge="1">
          <mxGeometry relative="1" as="geometry" />
        </mxCell>
        <mxCell id="EDLBkWlFKPZ8wZQIB9aU-49" style="edgeStyle=orthogonalEdgeStyle;rounded=0;orthogonalLoop=1;jettySize=auto;html=1;entryX=0;entryY=0.5;entryDx=0;entryDy=0;" parent="1" source="2" target="7" edge="1">
          <mxGeometry relative="1" as="geometry" />
        </mxCell>
        <mxCell id="EDLBkWlFKPZ8wZQIB9aU-58" style="edgeStyle=orthogonalEdgeStyle;rounded=0;orthogonalLoop=1;jettySize=auto;html=1;entryX=0;entryY=0.5;entryDx=0;entryDy=0;" parent="1" source="2" target="10" edge="1">
          <mxGeometry relative="1" as="geometry" />
        </mxCell>
        <mxCell id="EDLBkWlFKPZ8wZQIB9aU-59" style="edgeStyle=orthogonalEdgeStyle;rounded=0;orthogonalLoop=1;jettySize=auto;html=1;entryX=0;entryY=0.5;entryDx=0;entryDy=0;" parent="1" source="2" target="14" edge="1">
          <mxGeometry relative="1" as="geometry" />
        </mxCell>
        <mxCell id="EDLBkWlFKPZ8wZQIB9aU-60" style="edgeStyle=orthogonalEdgeStyle;rounded=0;orthogonalLoop=1;jettySize=auto;html=1;entryX=0;entryY=0.5;entryDx=0;entryDy=0;" parent="1" source="2" target="18" edge="1">
          <mxGeometry relative="1" as="geometry" />
        </mxCell>
        <mxCell id="2" value="Функции покупателя" style="whiteSpace=wrap;strokeWidth=1;" parent="1" vertex="1">
          <mxGeometry x="940" y="-975" width="91" height="34" as="geometry" />
        </mxCell>
        <mxCell id="EDLBkWlFKPZ8wZQIB9aU-43" style="edgeStyle=orthogonalEdgeStyle;rounded=0;orthogonalLoop=1;jettySize=auto;html=1;entryX=0;entryY=0.5;entryDx=0;entryDy=0;" parent="1" source="3" target="4" edge="1">
          <mxGeometry relative="1" as="geometry" />
        </mxCell>
        <mxCell id="EDLBkWlFKPZ8wZQIB9aU-44" style="edgeStyle=orthogonalEdgeStyle;rounded=0;orthogonalLoop=1;jettySize=auto;html=1;entryX=0;entryY=0.5;entryDx=0;entryDy=0;" parent="1" source="3" target="6" edge="1">
          <mxGeometry relative="1" as="geometry" />
        </mxCell>
        <mxCell id="EDLBkWlFKPZ8wZQIB9aU-45" style="edgeStyle=orthogonalEdgeStyle;rounded=0;orthogonalLoop=1;jettySize=auto;html=1;entryX=0;entryY=0.5;entryDx=0;entryDy=0;" parent="1" source="3" target="5" edge="1">
          <mxGeometry relative="1" as="geometry" />
        </mxCell>
        <mxCell id="3" value="Просмотр каталога" style="whiteSpace=wrap;strokeWidth=1;" parent="1" vertex="1">
          <mxGeometry x="1030" y="-900" width="83" height="34" as="geometry" />
        </mxCell>
        <mxCell id="4" value="Выбор категории" style="whiteSpace=wrap;strokeWidth=1;" parent="1" vertex="1">
          <mxGeometry x="1171" y="-896" width="189" height="26" as="geometry" />
        </mxCell>
        <mxCell id="5" value="Выбор подкатегории" style="whiteSpace=wrap;strokeWidth=1;" parent="1" vertex="1">
          <mxGeometry x="1171" y="-931" width="189" height="26" as="geometry" />
        </mxCell>
        <mxCell id="6" value="Просмотр товара" style="whiteSpace=wrap;strokeWidth=1;" parent="1" vertex="1">
          <mxGeometry x="1171" y="-861" width="189" height="26" as="geometry" />
        </mxCell>
        <mxCell id="EDLBkWlFKPZ8wZQIB9aU-46" style="edgeStyle=orthogonalEdgeStyle;rounded=0;orthogonalLoop=1;jettySize=auto;html=1;entryX=0;entryY=0.5;entryDx=0;entryDy=0;" parent="1" source="7" target="8" edge="1">
          <mxGeometry relative="1" as="geometry" />
        </mxCell>
        <mxCell id="EDLBkWlFKPZ8wZQIB9aU-47" style="edgeStyle=orthogonalEdgeStyle;rounded=0;orthogonalLoop=1;jettySize=auto;html=1;entryX=0;entryY=0.5;entryDx=0;entryDy=0;" parent="1" source="7" target="9" edge="1">
          <mxGeometry relative="1" as="geometry" />
        </mxCell>
        <mxCell id="7" value="Поиск товаров" style="whiteSpace=wrap;strokeWidth=1;" parent="1" vertex="1">
          <mxGeometry x="1030" y="-801" width="81" height="34" as="geometry" />
        </mxCell>
        <mxCell id="8" value="Ввод поискового запроса" style="whiteSpace=wrap;strokeWidth=1;" parent="1" vertex="1">
          <mxGeometry x="1170" y="-815" width="190" height="26" as="geometry" />
        </mxCell>
        <mxCell id="9" value="Ознакомление с результатами" style="whiteSpace=wrap;strokeWidth=1;" parent="1" vertex="1">
          <mxGeometry x="1170" y="-780" width="190" height="26" as="geometry" />
        </mxCell>
        <mxCell id="EDLBkWlFKPZ8wZQIB9aU-50" style="edgeStyle=orthogonalEdgeStyle;rounded=0;orthogonalLoop=1;jettySize=auto;html=1;entryX=0;entryY=0.5;entryDx=0;entryDy=0;" parent="1" source="10" target="11" edge="1">
          <mxGeometry relative="1" as="geometry" />
        </mxCell>
        <mxCell id="EDLBkWlFKPZ8wZQIB9aU-51" style="edgeStyle=orthogonalEdgeStyle;rounded=0;orthogonalLoop=1;jettySize=auto;html=1;entryX=0;entryY=0.5;entryDx=0;entryDy=0;" parent="1" source="10" target="12" edge="1">
          <mxGeometry relative="1" as="geometry" />
        </mxCell>
        <mxCell id="EDLBkWlFKPZ8wZQIB9aU-52" style="edgeStyle=orthogonalEdgeStyle;rounded=0;orthogonalLoop=1;jettySize=auto;html=1;entryX=0;entryY=0.5;entryDx=0;entryDy=0;" parent="1" source="10" target="13" edge="1">
          <mxGeometry relative="1" as="geometry" />
        </mxCell>
        <mxCell id="10" value="Работа с корзиной" style="whiteSpace=wrap;strokeWidth=1;" parent="1" vertex="1">
          <mxGeometry x="1030" y="-704" width="81" height="34" as="geometry" />
        </mxCell>
        <mxCell id="11" value="Добавление товара" style="whiteSpace=wrap;strokeWidth=1;" parent="1" vertex="1">
          <mxGeometry x="1170" y="-735" width="190" height="26" as="geometry" />
        </mxCell>
        <mxCell id="12" value="Удаление товара" style="whiteSpace=wrap;strokeWidth=1;" parent="1" vertex="1">
          <mxGeometry x="1170" y="-700" width="190" height="26" as="geometry" />
        </mxCell>
        <mxCell id="13" value="Изменение количества" style="whiteSpace=wrap;strokeWidth=1;" parent="1" vertex="1">
          <mxGeometry x="1170" y="-665" width="190" height="26" as="geometry" />
        </mxCell>
        <mxCell id="EDLBkWlFKPZ8wZQIB9aU-53" style="edgeStyle=orthogonalEdgeStyle;rounded=0;orthogonalLoop=1;jettySize=auto;html=1;entryX=0;entryY=0.5;entryDx=0;entryDy=0;" parent="1" source="14" target="15" edge="1">
          <mxGeometry relative="1" as="geometry" />
        </mxCell>
        <mxCell id="EDLBkWlFKPZ8wZQIB9aU-54" style="edgeStyle=orthogonalEdgeStyle;rounded=0;orthogonalLoop=1;jettySize=auto;html=1;entryX=0;entryY=0.5;entryDx=0;entryDy=0;" parent="1" source="14" target="16" edge="1">
          <mxGeometry relative="1" as="geometry" />
        </mxCell>
        <mxCell id="14" value="Оформление заказа" style="whiteSpace=wrap;strokeWidth=1;" parent="1" vertex="1">
          <mxGeometry x="1030" y="-605" width="90" height="34" as="geometry" />
        </mxCell>
        <mxCell id="15" value="Ввод контактной информации" style="whiteSpace=wrap;strokeWidth=1;" parent="1" vertex="1">
          <mxGeometry x="1171" y="-621" width="190" height="26" as="geometry" />
        </mxCell>
        <mxCell id="16" value="Подтверждение согласия на обработку ПДн" style="whiteSpace=wrap;strokeWidth=1;" parent="1" vertex="1">
          <mxGeometry x="1171" y="-586" width="190" height="36" as="geometry" />
        </mxCell>
        <mxCell id="17" value="Получение писем об обновлении статуса заказа" style="whiteSpace=wrap;strokeWidth=1;" parent="1" vertex="1">
          <mxGeometry x="1171" y="-530" width="190" height="36" as="geometry" />
        </mxCell>
        <mxCell id="EDLBkWlFKPZ8wZQIB9aU-55" style="edgeStyle=orthogonalEdgeStyle;rounded=0;orthogonalLoop=1;jettySize=auto;html=1;" parent="1" source="18" target="17" edge="1">
          <mxGeometry relative="1" as="geometry">
            <Array as="points">
              <mxPoint x="1140" y="-468" />
              <mxPoint x="1140" y="-510" />
            </Array>
          </mxGeometry>
        </mxCell>
        <mxCell id="EDLBkWlFKPZ8wZQIB9aU-56" style="edgeStyle=orthogonalEdgeStyle;rounded=0;orthogonalLoop=1;jettySize=auto;html=1;entryX=0;entryY=0.5;entryDx=0;entryDy=0;" parent="1" source="18" target="20" edge="1">
          <mxGeometry relative="1" as="geometry" />
        </mxCell>
        <mxCell id="EDLBkWlFKPZ8wZQIB9aU-57" style="edgeStyle=orthogonalEdgeStyle;rounded=0;orthogonalLoop=1;jettySize=auto;html=1;entryX=0;entryY=0.5;entryDx=0;entryDy=0;" parent="1" source="18" target="19" edge="1">
          <mxGeometry relative="1" as="geometry">
            <Array as="points">
              <mxPoint x="1140" y="-468" />
              <mxPoint x="1140" y="-428" />
            </Array>
            <mxPoint x="1140" y="-410" as="targetPoint" />
          </mxGeometry>
        </mxCell>
        <mxCell id="18" value="Получение информации" style="whiteSpace=wrap;strokeWidth=1;" parent="1" vertex="1">
          <mxGeometry x="1030" y="-485" width="90" height="34" as="geometry" />
        </mxCell>
        <mxCell id="19" value="Просмотр страницы магазина" style="whiteSpace=wrap;strokeWidth=1;" parent="1" vertex="1">
          <mxGeometry x="1171" y="-441" width="190" height="26" as="geometry" />
        </mxCell>
        <mxCell id="20" value="Ознакомление с условиями доставки и оплаты" style="whiteSpace=wrap;strokeWidth=1;" parent="1" vertex="1">
          <mxGeometry x="1171" y="-485" width="190" height="34" as="geometry" />
        </mxCell>
      </root>
    </mxGraphModel>
  </diagram>
</mxfile>
